# AST/ASF file generated using VICON BodyLanguage
# -----------------------------------------------
:version 1.10
:name VICON
:units
  mass 1.0
  length 0.45
  angle deg
:documentation
   .ast/.asf automatically generated from VICON data using
   VICON BodyBuilder and BodyLanguage model FoxedUp or BRILLIANT.MOD
:root
   order TX TY TZ RX RY RZ
   axis XYZ
   position 0 0 0  
   orientation 0 0 0 
:bonedata
  begin
     id 1 
     name lhipjoint
     direction 0.440178 -0.822639 0.359871 
     length 2.53113 
     axis 0 0 0  XYZ
  end
  begin
     id 2 
     name lfemur
     direction 0.34202 -0.939693 0  
     length 7.88132  
     axis 0 0 20  XYZ
    dof rx ry rz
    limits (-160.0 20.0)
           (-70.0 70.0)
           (-60.0 70.0)
  end
  begin
     id 3 
     name ltibia
     direction 0.34202 -0.939693 0   
     length 8.43783   
     axis 0 0 20   XYZ
    dof rx
    limits (-10.0 170.0)
  end
  begin
     id 4 
     name lfoot
     direction 0.0886351 -0.243523 0.965837   
     length 2.63414   
     axis -90 7.62852e-016 20   XYZ
    dof rx rz
    limits (-45.0 90.0)
           (-70.0 20.0)
  end
  begin
     id 5 
     name ltoes
     direction 1.53703e-011 -4.21717e-011 1   
     length 1.31427   
     axis -90 7.62852e-016 20   XYZ
    dof rx
    limits (-90.0 20.0)
  end
  begin
     id 6 
     name rhipjoint
     direction -0.399779 -0.839773 0.367367   
     length 2.47948  
     axis 0 0 0  XYZ 
  end
  begin
     id 7 
     name rfemur
     direction -0.34202 -0.939693 0   
     length 7.74806   
     axis 0 0 -20   XYZ
    dof rx ry rz
    limits (-160.0 20.0)
           (-70.0 70.0)
           (-70.0 60.0)
  end
  begin
     id 8 
     name rtibia
     direction -0.34202 -0.939693 0   
     length 8.74432   
     axis 0 0 -20   XYZ
    dof rx
    limits (-10.0 170.0)
 end
 begin
     id 9 
     name rfoot
     direction -0.108514 -0.298139 0.948334   
     length 2.66102  
     axis -90 -7.62852e-016 -20   XYZ
    dof rx rz
    limits (-45.0 90.0)
           (-20.0 70.0)
  end
  begin
     id 10 
     name rtoes
     direction -1.53392e-011 -4.22077e-011 1   
     length 1.31983   
     axis -90 -7.62852e-016 -20   XYZ
    dof rx
    limits (-90.0 20.0)
  end
  begin
     id 11 
     name lowerback
     direction 0.0113257 0.999866 0.0118602   
     length 2.58694   
     axis 0 0 0   XYZ
    dof rx ry rz
    limits (-20.0 45.0)
           (-30.0 30.0)
           (-30.0 30.0)
  end
  begin
     id 12 
     name upperback
     direction -0.0164747 0.995193 -0.0965375   
     length 2.52368   
     axis 0 0 0   XYZ
    dof rx ry rz
    limits (-20.0 45.0)
           (-30.0 30.0)
           (-30.0 30.0)
  end
  begin
     id 13 
     name thorax
     direction -0.0194301 0.99433 -0.104552   
     length 2.56099   
     axis 0 0 0   XYZ
    dof rx ry rz
    limits (-20.0 45.0)
           (-30.0 30.0)
           (-30.0 30.0)
  end
  begin
     id 14 
     name lowerneck
     direction 0.0148543 0.995587 -0.092657   
     length 1.71582   
     axis 0 0 0   XYZ
    dof rx ry rz
    limits (-20.0 45.0)
           (-30.0 30.0)
           (-30.0 30.0)
  end
  begin
     id 15 
     name upperneck
     direction -0.0135467 0.993656 -0.111639   
     length 1.68937   
     axis 0 0 0   XYZ
    dof rx ry rz
    limits (-20.0 45.0)
           (-30.0 30.0)
           (-30.0 30.0)
  end
  begin
     id 16
     name head
     direction -0.00615349 0.999547 -0.029448  
     length 1.7462  
     axis 0 0 0   XYZ
    dof rx ry rz
    limits (-20.0 45.0)
           (-30.0 30.0)
           (-30.0 30.0)
  end
  begin
     id 17 
     name lclavicle
     direction 0.988267 0.149885 0.0293713  
     length 4.47222  
     axis 0 0 0   XYZ
    dof ry rz
    limits (-20.0 10.0)
           (0.0 20.0)
  end
  begin
     id 18 
     name lhumerus
     direction 1 -4.48986e-011 -1.14833e-027   
     length 5.37148   
     axis 180 -30 -90   XYZ
    dof rx ry rz
    limits (-60.0 90.0)
           (-90.0 90.0)
           (-90.0 90.0)
  end
  begin
     id 19
     name lradius
     direction 0.999998 0.00170963 -0.000987055   
     length 3.94212   
     axis 180 -30 -90   XYZ
    dof rx
    limits (-10.0 170.0)
  end
  begin
     id 20
     name lwrist
     direction 0.999998 7.53149e-005 -0.00194706   
     length 1.97106   
     axis 4.65056e-015 90 90   XYZ
    dof ry
    limits (-180.0 0.0)
 end
  begin
     id 21 
     name lhand
     direction 1 -4.48973e-011 -1.31746e-026   
     length 1.17917   
     axis 8.4065e-015 90 90   XYZ
    dof rx rz
    limits (-90.0 90.0)
           (-45.0 45.0)
  end
  begin
     id 22 
     name lfingers
     direction 1 -4.49107e-011 -2.63492e-026   
     length 0.950679   
     axis 1.6813e-014 90 90   XYZ
    dof rx
    limits (0.0 90.0)
  end
  begin
     id 23
     name lthumb
     direction 0.707107 -6.35048e-011 0.707107   
     length 1.36499   
     axis -90 45 2.85299e-015   XYZ
    dof rx rz
    limits (-45.0 45.0)
           (-45.0 45.0)
  end
  begin
     id 24 
     name rclavicle
     direction -0.996699 0.0642895 -0.0495725   
     length 4.62611  
     axis 0 0 0   XYZ 
    dof ry rz
    limits (-10.0 20.0)
           (-20.0 0.0)
  end
  begin
     id 25 
     name rhumerus
     direction -1 -4.48919e-011 -2.41059e-027  
     length 5.4981   
     axis 180 30 90   XYZ
    dof rx ry rz
    limits (-90.0 60.0)
           (-90.0 90.0)
           (-90.0 90.0)
  end
  begin
     id 26 
     name rradius
     direction -0.999999 0.00118101 -0.000681858   
     length 3.48381   
     axis 180 30 90   XYZ
    dof rx
    limits (-10.0 170.0)
  end
  begin
     id 27 
     name rwrist
     direction -0.999999 0.000321823 -0.00132288   
     length 1.7419   
     axis 4.65056e-015 -90 -90   XYZ
    dof ry
    limits (-180.0 0.0)
  end
  begin
     id 28
     name rhand
     direction -1 -4.49022e-011 -1.31746e-026   
     length 1.34932   
     axis 8.4065e-015 -90 -90   XYZ
    dof rx rz
    limits (-90.0 90.0)
           (-45.0 45.0)
  end
  begin
     id 29
     name rfingers
     direction -1 -4.49178e-011 -2.63492e-026   
     length 1.08785   
     axis 1.6813e-014 -90 -90   XYZ
    dof rx
    limits (0.0 90.0)
  end
  begin
     id 30
     name rthumb
     direction -0.707107 -6.34713e-011 0.707107   
     length 1.56195   
     axis -90 -45 -2.85299e-015   XYZ
    dof rx rz
    limits (-45.0 45.0)
           (-45.0 45.0)
  end
:hierarchy
  begin
    root lhipjoint rhipjoint lowerback
    lhipjoint lfemur
    lfemur ltibia
    ltibia lfoot
    lfoot ltoes
    rhipjoint rfemur
    rfemur rtibia
    rtibia rfoot
    rfoot rtoes
    lowerback upperback
    upperback thorax
    thorax lowerneck lclavicle rclavicle
    lowerneck upperneck
    upperneck head
    lclavicle lhumerus
    lhumerus lradius
    lradius lwrist
    lwrist lhand lthumb
    lhand lfingers
    rclavicle rhumerus
    rhumerus rradius
    rradius rwrist
    rwrist rhand rthumb
    rhand rfingers
  end

#!OML:ASF X:\für Bonn\!DataBase\2005_08_10_Bjorn_Final\c3d\bjorn.ASF
:FULLY-SPECIFIED
:DEGREES
1
root 4.58822 16.1719 -26.985 4.42028 -4.50974 2.0851
lowerback 14.4275 -0.237731 -1.46463
upperback 11.3336 -0.473573 -1.17496
thorax 3.92874 -0.292957 -0.361585
lowerneck -11.3342 1.38866 1.20972
upperneck -17.8571 1.61824 -1.1641
head -3.91434 0.754557 -0.593343
rclavicle -2.48481e-015 7.7526e-015
rhumerus -45.0292 -44.867 -63.9209
rradius 34.9089
rwrist -150.014
rhand 9.31903e-013 -5.21611e-013
rfingers 7.12502
rthumb 25.5904 -28.3008
lclavicle -2.48481e-015 7.7526e-015
lhumerus -31.054 -4.65787 92.8224
lradius 44.7939
lwrist 10.3547
lhand 4.1049e-013 4.46868e-013
lfingers 7.12502
lthumb 25.5904 28.3008
rfemur -46.371 -5.14738 16.995
rtibia 82.594
rfoot -30.7585 15.3608
rtoes -5.86765
lfemur -47.3106 5.20187 -20.1865
ltibia 82.3181
lfoot -26.6016 0.780962
ltoes -25.0652
2
root 4.59762 15.9991 -26.8801 4.64465 -4.57852 1.73665
lowerback 14.6324 -0.272526 -1.15326
upperback 11.3551 -0.49344 -1.10196
thorax 3.84075 -0.287131 -0.456267
lowerneck -11.352 1.39236 1.23304
upperneck -18.7699 1.611 -1.19882
head -4.25262 0.746935 -0.618336
rclavicle 2.18663e-014 -5.96354e-016
rhumerus -46.9339 -46.9695 -61.2251
rradius 33.173
rwrist -147.586
rhand 8.14222e-013 8.6193e-013
rfingers 7.12502
rthumb 25.5904 -28.3008
lclavicle 2.18663e-014 -5.96354e-016
lhumerus -30.3477 -3.60223 92.6675
lradius 41.0275
lwrist 10.2113
lhand 3.19248e-013 -2.97382e-013
lfingers 7.12502
lthumb 25.5904 28.3008
rfemur -47.4613 -4.70102 17.1578
rtibia 84.9219
rfoot -31.3276 15.6127
rtoes -6.44005
lfemur -48.5827 5.25296 -19.9122
ltibia 84.9492
lfoot -27.356 1.51424
ltoes -27.279
3
root 4.60696 15.8363 -26.7765 4.90262 -4.67132 1.40837
lowerback 14.7432 -0.299884 -0.879355
upperback 11.4492 -0.503941 -1.0373
thorax 3.88262 -0.279154 -0.541054
lowerneck -11.4138 1.40939 1.25713
upperneck -19.765 1.61905 -1.2434
head -4.62191 0.746615 -0.647876
rclavicle -1.18277e-014 9.54166e-015
rhumerus -48.624 -49.0227 -58.7262
rradius 31.6216
rwrist -145.303
rhand -9.22361e-014 2.3218e-013
rfingers 7.12502
rthumb 25.5904 -28.3008
lclavicle -1.18277e-014 9.54166e-015
lhumerus -29.3365 -2.30206 92.3911
lradius 37.3224
lwrist 9.85099
lhand 1.47101e-014 4.13472e-014
lfingers 7.12502
lthumb 25.5904 28.3008
rfemur -48.4942 -4.30311 17.311
rtibia 87.0592
rfoot -31.9437 15.7351
rtoes -7.50815
lfemur -49.8307 5.29283 -19.6257
ltibia 87.4011
lfoot -27.8267 1.99961
ltoes -29.1489
4
root 4.61691 15.6818 -26.6764 5.26198 -4.74714 1.15166
lowerback 14.8084 -0.317272 -0.65382
upperback 11.5012 -0.505174 -0.996697
thorax 3.90317 -0.268065 -0.624882
lowerneck -11.6596 1.41838 1.24898
upperneck -20.5252 1.62309 -1.24371
head -4.87518 0.745328 -0.652754
rclavicle -2.08724e-015 -4.17448e-015
rhumerus -50.2274 -50.8835 -56.4354
rradius 30.3127
rwrist -143.393
rhand -1.7016e-013 -6.99722e-014
rfingers 7.12502
rthumb 25.5904 -28.3008
lclavicle -2.08724e-015 -4.17448e-015
lhumerus -28.2795 -0.838216 92.0451
lradius 33.8187
lwrist 9.2559
lhand 1.24439e-013 5.57392e-013
lfingers 7.12502
lthumb 25.5904 28.3008
rfemur -49.5365 -3.98763 17.3968
rtibia 88.9759
rfoot -32.3626 15.9809
rtoes -8.37055
lfemur -51.1151 5.25861 -19.3804
ltibia 89.6376
lfoot -27.9678 2.28541
ltoes -30.7933
5
root 4.62581 15.5407 -26.5777 5.67712 -4.84334 0.925465
lowerback 14.912 -0.333906 -0.500516
upperback 11.4589 -0.513928 -0.950053
thorax 3.80102 -0.265318 -0.659887
lowerneck -12.3501 1.44147 1.32832
upperneck -20.5676 1.61736 -1.3647
head -4.76875 0.738433 -0.701802
rclavicle 6.36111e-015 8.15017e-015
rhumerus -51.9382 -52.2844 -54.2777
rradius 29.3792
rwrist -141.924
rhand 1.00983e-012 1.38036e-012
rfingers 7.12502
rthumb 25.5904 -28.3008
lclavicle 6.36111e-015 8.15017e-015
lhumerus -27.3837 0.90837 91.6156
lradius 30.6611
lwrist 8.54948
lhand 2.62396e-013 -9.16397e-014
lfingers 7.12502
lthumb 25.5904 28.3008
rfemur -50.523 -3.68872 17.4507
rtibia 90.6367
rfoot -32.6349 16.37
rtoes -8.63444
lfemur -52.3305 5.22901 -19.115
ltibia 91.644
lfoot -28.1027 2.45761
ltoes -32.4068
6
root 4.63569 15.4208 -26.48 6.08204 -4.92076 0.73934
lowerback 15.0726 -0.351499 -0.362046
upperback 11.369 -0.525218 -0.927948
thorax 3.61698 -0.263842 -0.71125
lowerneck -12.7819 1.46297 1.41494
upperneck -20.7518 1.61314 -1.47539
head -4.76447 0.731382 -0.752832
rclavicle 1.8487e-014 -4.77083e-015
rhumerus -53.1286 -52.9249 -53.0689
rradius 28.7934
rwrist -141.188
rhand 1.14182e-012 2.3218e-013
rfingers 7.12502
rthumb 25.5904 -28.3008
lclavicle 1.8487e-014 -4.77083e-015
lhumerus -26.5735 2.92583 91.0476
lradius 27.7968
lwrist 7.49717
lhand 1.08934e-013 -1.7016e-013
lfingers 7.12502
lthumb 25.5904 28.3008
rfemur -51.3545 -3.46924 17.4658
rtibia 92.0433
rfoot -32.9593 16.7508
rtoes -9.1575
lfemur -53.3635 5.14872 -18.8605
ltibia 93.4
lfoot -28.3614 2.589
ltoes -33.8853
7
root 4.64445 15.3245 -26.3831 6.46154 -4.98441 0.578075
lowerback 15.2749 -0.368462 -0.272785
upperback 11.2787 -0.540606 -0.902427
thorax 3.41149 -0.267713 -0.730628
lowerneck -12.655 1.46685 1.46474
upperneck -21.7627 1.5891 -1.58572
head -4.54818 0.723782 -0.746316
rclavicle 3.18055e-015 -2.18663e-015
rhumerus -53.6181 -52.9989 -52.8456
rradius 28.479
rwrist -141.104
rhand 3.53042e-013 2.67167e-013
rfingers 7.12502
rthumb 25.5904 -28.3008
lclavicle 3.18055e-015 -2.18663e-015
lhumerus -25.7782 5.12594 90.3947
lradius 25.2614
lwrist 6.23139
lhand 8.11041e-014 2.43312e-013
lfingers 7.12502
lthumb 25.5904 28.3008
rfemur -52.0084 -3.34534 17.5021
rtibia 93.1841
rfoot -33.368 16.9228
rtoes -10.1977
lfemur -54.2024 5.03274 -18.6184
ltibia 94.8509
lfoot -28.5574 2.74149
ltoes -35.3941
8
root 4.65289 15.2437 -26.2865 6.82863 -5.06109 0.456943
lowerback 15.4273 -0.371476 -0.222836
upperback 11.2306 -0.541073 -0.885609
thorax 3.27885 -0.266127 -0.73954
lowerneck -12.8504 1.45622 1.44731
upperneck -22.2446 1.56326 -1.6092
head -4.67234 0.710626 -0.752997
rclavicle 9.74045e-015 1.33186e-014
rhumerus -53.4468 -52.7587 -53.4236
rradius 28.3354
rwrist -141.511
rhand 8.88965e-013 7.79236e-013
rfingers 7.12502
rthumb 25.5904 -28.3008
lclavicle 9.74045e-015 1.33186e-014
lhumerus -25.01 7.17502 89.778
lradius 23.2387
lwrist 4.91037
lhand 4.96962e-013 7.14035e-013
lfingers 7.12502
lthumb 25.5904 28.3008
rfemur -52.5135 -3.2795 17.5187
rtibia 94.1122
rfoot -33.8346 16.9907
rtoes -11.292
lfemur -54.8668 4.94557 -18.4492
ltibia 96.0155
lfoot -28.7075 2.87252
ltoes -36.5449
9
root 4.66264 15.1803 -26.1897 7.17426 -5.13749 0.337413
lowerback 15.5651 -0.372952 -0.148836
upperback 11.2215 -0.536145 -0.894371
thorax 3.19623 -0.25949 -0.789948
lowerneck -12.9339 1.45091 1.50329
upperneck -22.8983 1.53674 -1.64636
head -4.86782 0.691949 -0.778519
rclavicle 2.5842e-015 -1.37161e-014
rhumerus -52.7099 -52.2356 -54.7376
rradius 28.4743
rwrist -142.589
rhand 1.84472e-013 -4.19833e-013
rfingers 7.12502
rthumb 25.5904 -28.3008
lclavicle 2.5842e-015 -1.37161e-014
lhumerus -24.3194 9.05304 89.1803
lradius 21.8016
lwrist 3.50773
lhand -2.79094e-013 -2.44903e-013
lfingers 7.12502
lthumb 25.5904 28.3008
rfemur -52.8712 -3.23199 17.5516
rtibia 94.8422
rfoot -34.3107 17.014
rtoes -12.2212
lfemur -55.3064 4.83747 -18.2902
ltibia 96.8809
lfoot -28.8321 2.90122
ltoes -37.2189
10
root 4.6711 15.1328 -26.0916 7.54235 -5.20992 0.215959
lowerback 15.6895 -0.377621 -0.113646
upperback 11.18 -0.539885 -0.868267
thorax 3.08589 -0.260835 -0.780699
lowerneck -12.8008 1.40792 1.37026
upperneck -23.7375 1.49537 -1.56516
head -5.1592 0.675891 -0.737265
rclavicle 1.53064e-014 -6.75868e-015
rhumerus -51.4669 -51.2272 -56.6681
rradius 28.861
rwrist -144.447
rhand 1.14182e-012 -2.98972e-013
rfingers 7.12502
rthumb 25.5904 -28.3008
lclavicle 1.53064e-014 -6.75868e-015
lhumerus -23.9314 10.3494 88.8087
lradius 21.2535
lwrist 2.62422
lhand 2.70347e-014 1.86062e-013
lfingers 7.12502
lthumb 25.5904 28.3008
rfemur -53.1308 -3.22633 17.6179
rtibia 95.3846
rfoot -34.7632 17.0174
rtoes -13.0077
lfemur -55.647 4.71122 -18.1212
ltibia 97.5197
lfoot -28.9343 2.86105
ltoes -37.6789
11
root 4.6792 15.1002 -25.993 7.96481 -5.27721 0.145922
lowerback 15.7949 -0.376191 -0.111184
upperback 11.08 -0.538979 -0.87795
thorax 2.92192 -0.260327 -0.790883
lowerneck -12.4245 1.36669 1.36207
upperneck -24.7553 1.4353 -1.56338
head -5.54572 0.644499 -0.745042
rclavicle -1.31198e-014 3.97569e-016
rhumerus -49.8288 -49.9653 -59.085
rradius 29.3692
rwrist -146.539
rhand -3.4191e-013 4.23014e-013
rfingers 7.12502
rthumb 25.5904 -28.3008
lclavicle -1.31198e-014 3.97569e-016
lhumerus -23.905 10.849 88.5901
lradius 21.6635
lwrist 2.42554
lhand -4.05521e-014 1.7334e-013
lfingers 7.12502
lthumb 25.5904 28.3008
rfemur -53.3762 -3.23641 17.6401
rtibia 95.7626
rfoot -35.0352 17.0981
rtoes -13.0202
lfemur -55.9176 4.55249 -18.0198
ltibia 97.9338
lfoot -29.0207 2.76812
ltoes -37.9037
12
root 4.68745 15.0901 -25.8926 8.45173 -5.36277 0.144243
lowerback 15.8714 -0.350598 -0.184813
upperback 10.9412 -0.515504 -0.892448
thorax 2.73185 -0.252423 -0.76618
lowerneck -12.485 1.31987 1.35618
upperneck -25.1721 1.36426 -1.56379
head -5.67411 0.607834 -0.746264
rclavicle -9.74045e-015 -5.96354e-015
rhumerus -47.9945 -48.4539 -61.6989
rradius 30.0377
rwrist -148.985
rhand -3.80076e-013 1.7175e-013
rfingers 7.12502
rthumb 25.5904 -28.3008
lclavicle -9.74045e-015 -5.96354e-015
lhumerus -24.1084 10.4673 88.633
lradius 22.9304
lwrist 3.16504
lhand -2.61601e-013 -4.0234e-013
lfingers 7.12502
lthumb 25.5904 28.3008
rfemur -53.5713 -3.28091 17.5924
rtibia 95.931
rfoot -35.2458 17.2499
rtoes -12.9024
lfemur -56.0898 4.33311 -18.0036
ltibia 98.1011
lfoot -29.2106 2.61525
ltoes -37.6911
13
root 4.69657 15.0997 -25.7907 8.92664 -5.4692 0.116758
lowerback 16.0061 -0.328813 -0.228737
upperback 10.7706 -0.49445 -0.917653
thorax 2.47708 -0.243754 -0.768656
lowerneck -12.6494 1.28651 1.38759
upperneck -25.3615 1.30627 -1.57843
head -5.71244 0.575319 -0.756161
rclavicle 1.13307e-014 -3.37934e-015
rhumerus -46.016 -46.4961 -64.5874
rradius 30.9885
rwrist -151.613
rhand 4.35736e-013 3.84847e-013
rfingers 7.12502
rthumb 25.5904 -28.3008
lclavicle 1.13307e-014 -3.37934e-015
lhumerus -24.5042 9.35057 88.8022
lradius 24.8602
lwrist 4.59497
lhand -3.18055e-014 -1.24042e-013
lfingers 7.12502
lthumb 25.5904 28.3008
rfemur -53.6333 -3.27949 17.5865
rtibia 95.9
rfoot -35.3873 17.3594
rtoes -12.5202
lfemur -56.0746 4.10866 -17.9678
ltibia 98.0536
lfoot -29.4911 2.43238
ltoes -37.276
14
root 4.70639 15.1213 -25.6866 9.39377 -5.59142 0.111728
lowerback 16.1683 -0.29019 -0.323897
upperback 10.5427 -0.458673 -0.907864
thorax 2.1471 -0.231368 -0.707229
lowerneck -12.389 1.23243 1.32623
upperneck -25.9056 1.23359 -1.57576
head -5.93191 0.543629 -0.749612
rclavicle 1.23246e-014 -6.36111e-015
rhumerus -44.1223 -44.3814 -67.2859
rradius 32.1261
rwrist -154.07
rhand 9.06458e-013 8.36486e-013
rfingers 7.12502
rthumb 25.5904 -28.3008
lclavicle 1.23246e-014 -6.36111e-015
lhumerus -24.98 8.01746 89.0645
lradius 27.1195
lwrist 6.11259
lhand 6.44062e-014 5.31153e-013
lfingers 7.12502
lthumb 25.5904 28.3008
rfemur -53.5562 -3.27624 17.5513
rtibia 95.6638
rfoot -35.4584 17.598
rtoes -11.7418
lfemur -55.9486 3.88368 -17.9771
ltibia 97.8418
lfoot -29.7564 2.34345
ltoes -36.9728
